<svg width="200" height="80" viewBox="0 0 200 80" fill="none" xmlns="http://www.w3.org/2000/svg">
<rect width="199.424" height="80" fill="#5372FF"/>
<g clip-path="url(#clip0_4079_5794)">
<path d="M29.0202 53.0032C41.7102 53.0032 51.9974 42.7159 51.9974 30.0259C51.9974 17.336 41.7102 7.04871 29.0202 7.04871C16.3302 7.04871 6.04297 17.336 6.04297 30.0259C6.04297 42.7159 16.3302 53.0032 29.0202 53.0032Z" fill="url(#paint0_linear_4079_5794)"/>
<path d="M40.5058 27.1083C39.5924 27.2005 38.8752 28.0284 38.8752 28.9886V33.51C38.1998 33.1933 37.3669 33.3139 36.8055 33.8619L32.4484 38.2224C31.5636 39.1073 31.0742 40.2803 31.0742 41.5288V45.2843C31.0742 45.5709 31.3088 45.8038 31.5937 45.8038C31.8786 45.8038 32.1132 45.5692 32.1132 45.2843V41.5288C32.1132 40.5568 32.492 39.6418 33.1774 38.9564L37.5328 34.6026C37.8395 34.301 38.3322 34.301 38.6339 34.6026C38.7026 34.6697 38.7495 34.7484 38.7847 34.8305C38.8014 34.8624 38.8048 34.8993 38.8149 34.9294C38.8936 35.1942 38.8417 35.4908 38.6288 35.702L36.0514 38.2811C35.8486 38.4838 35.8486 38.8106 36.0514 39.0117C36.1553 39.1173 36.2844 39.1626 36.4201 39.1626C36.5558 39.1626 36.6849 39.1106 36.7888 39.0117L39.3645 36.436C39.76 36.0405 39.9259 35.5009 39.879 34.9814C39.8857 34.9512 39.8958 34.9194 39.8958 34.8892V28.9853C39.8958 28.5479 40.2024 28.1725 40.5912 28.1373C40.8158 28.1172 41.032 28.1826 41.1945 28.3334C41.3604 28.4842 41.4492 28.687 41.4492 28.9115V36.0623C41.4492 36.8449 41.1593 37.599 40.6231 38.1772L37.1893 41.9009C36.9245 42.1924 36.7737 42.5662 36.7737 42.9616V45.2843C36.7737 45.5709 37.0083 45.8038 37.2932 45.8038C37.5781 45.8038 37.8127 45.5692 37.8127 45.2843V42.9616C37.8127 42.8309 37.8596 42.7069 37.9535 42.6081L41.3872 38.8844C42.0995 38.1135 42.4899 37.1113 42.4899 36.0623V28.9115C42.4899 28.3954 42.2704 27.906 41.8917 27.5591C41.5129 27.2173 40.9985 27.0497 40.484 27.0966L40.5041 27.1067L40.5058 27.1083Z" fill="#F3C01B"/>
<path d="M21.1936 33.8619C20.6356 33.3139 19.806 33.1933 19.1307 33.51V28.9886C19.1307 28.0234 18.4151 27.1972 17.4984 27.1084C16.9789 27.0564 16.4762 27.2223 16.0907 27.5709C15.712 27.9144 15.4941 28.4071 15.4941 28.9233V36.074C15.4941 37.1214 15.8829 38.1202 16.5968 38.8894L20.0356 42.6164C20.1244 42.7103 20.1714 42.841 20.1714 42.97V45.2927C20.1714 45.5793 20.4043 45.8122 20.6892 45.8122C20.9741 45.8122 21.2087 45.5776 21.2087 45.2927V42.97C21.2087 42.5745 21.0646 42.1992 20.7981 41.9143L17.3577 38.1889C16.8231 37.6107 16.5315 36.8566 16.5315 36.074V28.9233C16.5315 28.6987 16.627 28.4959 16.7862 28.3451C16.9538 28.1943 17.1649 28.1205 17.3878 28.149C17.7783 28.1909 18.0866 28.5596 18.0866 28.9953V34.8993C18.0866 34.9311 18.0967 34.9613 18.1017 34.9931C18.0548 35.5126 18.2224 36.0472 18.6162 36.4477L21.1953 39.0268C21.2992 39.1307 21.4299 39.176 21.564 39.176C21.698 39.176 21.8288 39.124 21.9327 39.0268C22.1354 38.824 22.1354 38.4973 21.9327 38.2945L19.3552 35.7171C19.1458 35.5076 19.0905 35.2076 19.1675 34.9428C19.1776 34.9127 19.1843 34.8741 19.1977 34.844C19.2346 34.7602 19.2832 34.6814 19.3552 34.6093C19.6619 34.3127 20.1546 34.3094 20.4563 34.6093L24.8168 38.9698C25.5022 39.6552 25.8809 40.5702 25.8809 41.5422V45.2994C25.8809 45.5843 26.1155 45.8173 26.4004 45.8173C26.6853 45.8173 26.9199 45.5826 26.9199 45.2994V41.5422C26.9199 40.2954 26.4306 39.1207 25.5491 38.2358L21.1886 33.8753L21.1953 33.8653L21.1936 33.8619Z" fill="#F3C01B"/>
<path d="M34.0582 23.3763L27.3029 30.5689C27.199 30.6778 27.0649 30.7348 26.9242 30.7348C26.8303 30.7348 26.7314 30.7097 26.6426 30.651C26.4365 30.5203 26.346 30.2555 26.4399 30.0243L28.238 25.461H24.325C24.1188 25.461 23.9311 25.337 23.849 25.1443C23.7636 24.9583 23.8055 24.7337 23.9462 24.5829L30.7015 17.3902C30.8741 17.2076 31.1489 17.1724 31.3618 17.3081C31.5696 17.4372 31.6584 17.7019 31.5645 17.9366L29.7664 22.4998H33.6794C33.8872 22.4998 34.0749 22.6238 34.157 22.8166C34.2408 23.0026 34.1989 23.2271 34.0582 23.378V23.3763ZM38.3566 23.9796C38.3566 18.8247 34.1587 14.6251 29.0022 14.6251C23.8457 14.6251 19.6494 18.8231 19.6494 23.9796C19.6494 29.1361 23.8474 33.334 29.0022 33.334C34.157 33.334 38.3566 29.1361 38.3566 23.9796Z" fill="#F3C01B"/>
<path d="M44.071 17.226C42.9231 17.226 41.993 16.296 41.993 15.1463C41.993 14.8598 41.7584 14.6268 41.4735 14.6268C41.1886 14.6268 40.954 14.8614 40.954 15.1463C40.954 16.296 40.0239 17.226 38.8759 17.226C38.5894 17.226 38.3564 17.4607 38.3564 17.7455C38.3564 18.0304 38.5911 18.2634 38.8759 18.2634C40.0239 18.2634 40.954 19.1951 40.954 20.3431C40.954 20.6296 41.1886 20.8626 41.4735 20.8626C41.7584 20.8626 41.993 20.628 41.993 20.3431C41.993 19.1951 42.9231 18.2634 44.071 18.2634C44.3576 18.2634 44.5905 18.0304 44.5905 17.7455C44.5905 17.4607 44.3559 17.226 44.071 17.226Z" fill="#F3C01B"/>
<path d="M16.0123 25.0203C16.2989 25.0203 16.5301 24.7856 16.5301 24.5007C16.5301 23.6427 17.2323 22.9406 18.0903 22.9406C18.3769 22.9406 18.6098 22.7059 18.6098 22.421C18.6098 22.1362 18.3752 21.9015 18.0903 21.9015C17.2323 21.9015 16.5301 21.201 16.5301 20.3447C16.5301 20.0581 16.2989 19.8252 16.0123 19.8252C15.7257 19.8252 15.4928 20.0598 15.4928 20.3447C15.4928 21.2027 14.7906 21.9015 13.9326 21.9015C13.646 21.9015 13.4131 22.1362 13.4131 22.421C13.4131 22.7059 13.6477 22.9406 13.9326 22.9406C14.7906 22.9406 15.4928 23.6427 15.4928 24.5007C15.4928 24.7873 15.7274 25.0203 16.0123 25.0203Z" fill="#F3C01B"/>
</g>
<path d="M178.717 8.10168C186.79 8.10168 193.354 12.9806 193.354 21.0541C193.354 29.1276 186.79 34.4131 178.717 34.4131H170.759C170.237 34.4131 170.062 34.5293 170.062 35.052V48.7014C170.062 49.6889 169.249 50.502 168.262 50.502H168.088C167.1 50.502 166.287 49.6889 166.287 48.7014V9.90224C166.287 8.91484 167.1 8.10168 168.088 8.10168H178.717ZM178.717 30.6377C184.757 30.6377 189.636 27.0947 189.636 21.0541C189.636 15.0135 184.757 11.819 178.717 11.819H170.759C170.237 11.819 170.062 11.9932 170.062 12.4579V29.9408C170.062 30.4635 170.179 30.6377 170.701 30.6377H178.717Z" fill="#FF7F00"/>
<path d="M148.672 25.933C153.725 25.7588 161.334 29.6503 161.334 38.3627C161.334 45.7973 156.222 51.2571 148.788 51.2571C143.851 51.2571 139.785 48.9918 137.52 45.2745C135.894 42.6027 139.204 40.3956 141.121 43.0674C142.922 45.6811 145.129 47.7721 148.788 47.7721C154.306 47.7721 157.791 43.8806 157.791 38.3627C157.791 33.3676 153.957 29.1857 148.672 29.4761C142.922 29.7084 137.984 25.1199 137.984 18.3823C137.984 12.3417 142.399 7.40466 148.788 7.40466C153.028 7.40466 156.513 9.26331 158.43 12.6321C159.707 14.8973 156.687 16.5236 155.235 14.7812C153.26 12.3998 151.634 10.8896 148.788 10.8896C144.374 10.8896 141.469 14.2584 141.469 18.3823C141.469 21.8672 143.328 26.1654 148.672 25.933Z" fill="#FF7F00"/>
<path d="M130.303 8.10168C131.29 8.10168 132.104 8.91484 132.104 9.90224V30.9282C132.104 43.0674 128.328 51.2571 116.247 51.2571C104.108 51.2571 99.8096 43.0674 99.8096 30.9282V9.90224C99.8096 8.91484 100.623 8.10168 101.61 8.10168H101.784C102.772 8.10168 103.527 8.91484 103.527 9.90224V30.9282C103.527 41.0345 106.896 47.7721 116.247 47.7721C125.54 47.7721 128.328 41.0345 128.328 30.9282V9.90224C128.328 8.91484 129.141 8.10168 130.129 8.10168H130.303Z" fill="#FF7F00"/>
<path d="M80.6779 7.40466C86.1377 7.40466 91.1328 9.55372 94.7339 12.6321C94.9081 12.7483 95.3147 13.271 95.3147 13.8518C95.3147 14.2003 95.3147 16.1751 95.3147 17.5691C95.3147 18.2661 94.9081 18.3242 94.5596 17.8595C91.4232 13.6195 86.4281 10.8896 80.6779 10.8896C70.6296 10.8896 62.4399 19.2535 62.4399 29.3018C62.4399 39.3501 70.6296 47.7721 80.6779 47.7721C86.4281 47.7721 91.4232 44.9841 94.5596 40.7441C94.9081 40.2794 95.3147 40.3375 95.3147 40.9764C95.3147 42.3704 95.3147 44.4033 95.3147 44.6937C95.3147 45.3326 94.9081 45.7973 94.7339 45.9715C91.0166 49.2242 86.1377 51.2571 80.6779 51.2571C68.5386 51.2571 58.7227 41.383 58.7227 29.3018C58.7227 17.1626 68.5386 7.40466 80.6779 7.40466Z" fill="#FF7F00"/>
<path d="M193.159 60.781H191.978V56.6373H193.159V60.781ZM191.978 62.5448V61.3633H193.159V62.5448H191.978Z" fill="#7ED959"/>
<path d="M190.386 62.5448H186.251L185.669 61.9625V60.781H186.85V61.3633H189.796V60.1902H186.251L185.669 59.7683V57.2365L186.251 56.6373H190.386L190.969 57.2365V58.4096H189.796V57.8188H186.85V59.0003H190.386L190.969 59.5911V61.9625L190.386 62.5448Z" fill="#7ED959"/>
<path d="M179.36 56.6373H180.542V61.3633H183.487V56.6373H184.66V61.9625L184.078 62.5448H179.943L179.36 61.9625V56.6373Z" fill="#7ED959"/>
<path d="M170.685 62.5448H169.504V56.6373H170.685V59.0088H173.631V56.6373H174.804V62.5448H173.631V60.1902H170.685V62.5448Z" fill="#7ED959"/>
<path d="M166.693 62.5448H165.512V57.8188H163.444V56.6373H168.744V57.8188H166.693V62.5448Z" fill="#7ED959"/>
<path d="M162.683 62.5448H161.502V56.6373H162.683V62.5448Z" fill="#7ED959"/>
<path d="M157.932 62.5448L157.037 61.4899L156.159 62.5448H154.978L153.501 60.781V56.6373H154.682V60.1902L155.577 61.3633L156.446 60.1902V56.6373H157.628V60.1902L158.522 61.3633L159.4 60.1902V56.6373H160.573V60.781L159.113 62.5448H157.932Z" fill="#7ED959"/>
<path d="M149.113 62.5448H144.1V56.6373H149.113V57.8188H145.281V59.0088H148.817V60.1902H145.281V61.3633H149.113V62.5448Z" fill="#7ED959"/>
<path d="M138.973 59.5995H141.918V57.8188H138.973V59.5995ZM143.091 62.5448H141.918V61.9625L141.327 61.3633L140.736 60.781H138.973V62.5448H137.791V56.6373H142.509L143.091 57.2365V60.1902L142.509 60.781L143.091 61.3633V62.5448Z" fill="#7ED959"/>
<path d="M131.483 56.6373H132.665V61.3633H135.61V56.6373H136.783V61.9625L136.201 62.5448H132.066L131.483 61.9625V56.6373Z" fill="#7ED959"/>
<path d="M128.673 62.5448H127.491V57.8188H125.424V56.6373H130.724V57.8188H128.673V62.5448Z" fill="#7ED959"/>
<path d="M119.368 56.6373H120.55V61.3633H123.495V56.6373H124.668V61.9625L124.086 62.5448H119.95L119.368 61.9625V56.6373Z" fill="#7ED959"/>
<path d="M114.777 62.5448H113.596V56.6373H118.609V57.8188H114.777V59.0088H118.313V60.1902H114.777V62.5448Z" fill="#7ED959"/>
<path d="M109.039 62.5448H107.866L104.921 58.6037V62.5448H103.739V56.6373H104.921L107.866 60.57V56.6373H109.039V62.5448Z" fill="#7ED959"/>
<path d="M102.814 62.5448H97.8008V56.6373H102.814V57.8188H98.9823V59.0088H102.518V60.1902H98.9823V61.3633H102.814V62.5448Z" fill="#7ED959"/>
<path d="M96.8762 62.5448H91.8633V56.6373H96.8762V57.8188H93.0448V59.0088H96.5808V60.1902H93.0448V61.3633H96.8762V62.5448Z" fill="#7ED959"/>
<path d="M86.7362 59.5995H89.6815V57.8188H86.7362V59.5995ZM90.8545 62.5448H89.6815V61.9625L89.0907 61.3633L88.5 60.781H86.7362V62.5448H85.5547V56.6373H90.2722L90.8545 57.2365V60.1902L90.2722 60.781L90.8545 61.3633V62.5448Z" fill="#7ED959"/>
<path d="M83.9636 62.5448H79.8284L79.2461 61.9625V57.2365L79.8284 56.6373H83.9636L84.5459 57.2365V58.4096H83.3729V57.8188H80.4276V61.3633H83.3729V60.3422H81.8876V59.1607H84.5459V61.9625L83.9636 62.5448Z" fill="#7ED959"/>
<path d="M70.5711 61.3633H73.5164V57.8188H70.5711V61.3633ZM74.1072 62.5448H69.972L69.3896 61.9625V57.2365L69.972 56.6373H74.1072L74.6895 57.2365V61.9625L74.1072 62.5448Z" fill="#7ED959"/>
<path d="M66.5792 62.5448H65.3977V57.8188H63.3301V56.6373H68.6299V57.8188H66.5792V62.5448Z" fill="#7ED959"/>
<path d="M59.0274 62.5448H57.8543L54.909 58.6037V62.5448H53.7275V56.6373H54.909L57.8543 60.57V56.6373H59.0274V62.5448Z" fill="#7ED959"/>
<path d="M48.5995 61.3633H51.5448V57.8188H48.5995V61.3633ZM52.1355 62.5448H48.0003L47.418 61.9625V57.2365L48.0003 56.6373H52.1355L52.7178 57.2365V61.9625L52.1355 62.5448Z" fill="#7ED959"/>
<path d="M46.4041 62.5448H45.2227V56.6373H46.4041V62.5448Z" fill="#7ED959"/>
<path d="M42.4122 62.5448H41.2307V57.8188H39.1631V56.6373H44.4629V57.8188H42.4122V62.5448Z" fill="#7ED959"/>
<path d="M38.4012 62.5448H37.2197V56.6373H38.4012V62.5448Z" fill="#7ED959"/>
<path d="M35.6287 62.5448H31.4934L30.9111 61.9625V60.781H32.0926V61.3633H35.0379V60.1902H31.4934L30.9111 59.7683V57.2365L31.4934 56.6373H35.6287L36.211 57.2365V58.4096H35.0379V57.8188H32.0926V59.0003H35.6287L36.211 59.5911V61.9625L35.6287 62.5448Z" fill="#7ED959"/>
<path d="M29.9024 62.5448H28.7293L25.784 58.6037V62.5448H24.6025V56.6373H25.784L28.7293 60.57V56.6373H29.9024V62.5448Z" fill="#7ED959"/>
<path d="M19.4735 59.5995H22.4188V57.8188H20.6465L19.4735 59.0088V59.5995ZM19.4735 62.5448H18.292V58.418L20.0558 56.6373H23.5918V62.5448H22.4188V60.781H19.4735V62.5448Z" fill="#7ED959"/>
<path d="M13.2499 59.5995H16.1951V57.8188H13.2499V59.5995ZM17.3682 62.5448H16.1951V61.9625L15.6044 61.3633L15.0137 60.781H13.2499V62.5448H12.0684V56.6373H16.7859L17.3682 57.2365V60.1902L16.7859 60.781L17.3682 61.3633V62.5448Z" fill="#7ED959"/>
<path d="M9.2579 62.5448H8.0764V57.8188H6.00879V56.6373H11.3086V57.8188H9.2579V62.5448Z" fill="#7ED959"/>
<path d="M191.009 72.9563C190.644 72.9563 190.321 72.8679 190.039 72.6912C189.758 72.5089 189.537 72.2603 189.377 71.9455C189.222 71.6251 189.145 71.2551 189.145 70.8353C189.145 70.4155 189.222 70.0482 189.377 69.7334C189.537 69.4185 189.758 69.1727 190.039 68.996C190.321 68.8192 190.647 68.7309 191.017 68.7309C191.376 68.7309 191.688 68.8165 191.953 68.9877C192.224 69.1534 192.434 69.3964 192.583 69.7168C192.732 70.0316 192.807 70.4045 192.807 70.8353C192.807 71.2606 192.732 71.6334 192.583 71.9538C192.434 72.2686 192.224 72.5144 191.953 72.6912C191.683 72.8679 191.368 72.9563 191.009 72.9563ZM191.174 72.0946C191.484 72.0946 191.732 71.9814 191.92 71.7549C192.113 71.5229 192.21 71.2192 192.21 70.8436C192.21 70.468 192.113 70.1669 191.92 69.9405C191.732 69.7085 191.484 69.5925 191.174 69.5925C190.865 69.5925 190.611 69.7085 190.412 69.9405C190.219 70.1669 190.122 70.4652 190.122 70.8353C190.122 71.2109 190.219 71.5147 190.412 71.7466C190.611 71.9786 190.865 72.0946 191.174 72.0946ZM192.401 72.8651L192.169 71.9786H192.243V69.8162H192.169V67.223H193.13V72.8651H192.401Z" fill="white"/>
<path d="M187.066 68.7308C187.353 68.7308 187.58 68.7778 187.745 68.8717C187.911 68.9656 188.035 69.0954 188.118 69.2611C188.201 69.4213 188.253 69.6035 188.275 69.8079C188.303 70.0067 188.317 70.2139 188.317 70.4293V72.8651H187.356V70.3464C187.356 70.0758 187.298 69.8963 187.182 69.8079C187.071 69.714 186.933 69.6671 186.768 69.6671C186.613 69.6671 186.453 69.7002 186.287 69.7665C186.127 69.8272 185.98 69.9128 185.848 70.0233C185.715 70.1283 185.608 70.2498 185.525 70.3879L185.45 69.8659H185.657V72.8651H184.696V68.822H185.417L185.616 69.5593L185.334 69.5676C185.489 69.3964 185.657 69.25 185.84 69.1285C186.022 69.0015 186.215 68.9048 186.42 68.8385C186.629 68.7667 186.845 68.7308 187.066 68.7308Z" fill="white"/>
<path d="M181.655 72.9811C181.346 72.9811 181.078 72.9259 180.851 72.8154C180.63 72.6994 180.459 72.5392 180.338 72.3349C180.216 72.1305 180.155 71.8875 180.155 71.6058C180.155 71.3296 180.216 71.0893 180.338 70.885C180.465 70.6806 180.641 70.5204 180.868 70.4044C181.094 70.2829 181.357 70.2222 181.655 70.2222C182.047 70.2222 182.362 70.3105 182.599 70.4873C182.842 70.664 183.008 70.9126 183.097 71.2329L182.616 71.1998V70.1973C182.616 70.0316 182.558 69.8825 182.442 69.7499C182.332 69.6173 182.141 69.5511 181.87 69.5511C181.716 69.5511 181.544 69.5704 181.357 69.6091C181.169 69.6422 180.975 69.7057 180.777 69.7996L180.487 69.0871C180.719 68.9711 180.962 68.8827 181.216 68.822C181.475 68.7612 181.732 68.7308 181.986 68.7308C182.345 68.7308 182.641 68.7971 182.873 68.9297C183.11 69.0567 183.287 69.2307 183.403 69.4516C183.519 69.6726 183.577 69.9267 183.577 70.2139V72.8651H182.84L182.624 72.1112L183.097 71.9703C183.003 72.3017 182.829 72.553 182.575 72.7243C182.326 72.8955 182.019 72.9811 181.655 72.9811ZM181.879 72.194C182.1 72.194 182.276 72.1415 182.409 72.0366C182.547 71.9317 182.616 71.7881 182.616 71.6058C182.616 71.4125 182.547 71.2661 182.409 71.1667C182.276 71.0617 182.1 71.0092 181.879 71.0092C181.658 71.0092 181.478 71.0617 181.34 71.1667C181.207 71.2661 181.141 71.4125 181.141 71.6058C181.141 71.7881 181.207 71.9317 181.34 72.0366C181.478 72.1415 181.658 72.194 181.879 72.194Z" fill="white"/>
<path d="M178.274 68.822L178.514 69.9239V72.8651H177.553V68.822H178.274ZM178.34 70.3796L178.141 70.2884V69.5676L178.216 69.4682C178.271 69.3743 178.359 69.2694 178.481 69.1534C178.602 69.0374 178.743 68.938 178.903 68.8551C179.069 68.7723 179.237 68.7308 179.409 68.7308C179.491 68.7308 179.569 68.7364 179.641 68.7474C179.718 68.7585 179.776 68.7778 179.815 68.8054V69.6753H179.549C179.185 69.6753 178.911 69.7333 178.729 69.8493C178.547 69.9598 178.417 70.1365 178.34 70.3796Z" fill="white"/>
<path d="M172.584 72.8651V67.223H174.514C174.923 67.223 175.26 67.2782 175.525 67.3887C175.796 67.4991 175.997 67.6676 176.13 67.8941C176.268 68.1205 176.337 68.405 176.337 68.7474C176.337 69.0291 176.268 69.2777 176.13 69.4931C175.997 69.7085 175.818 69.877 175.591 69.9985C175.371 70.1145 175.128 70.1725 174.862 70.1725L174.904 69.7996C175.241 69.7996 175.528 69.8604 175.765 69.9819C176.003 70.1034 176.188 70.2747 176.321 70.4956C176.453 70.7165 176.519 70.9789 176.519 71.2827C176.519 71.8019 176.359 72.1968 176.039 72.4675C175.719 72.7326 175.257 72.8651 174.655 72.8651H172.584ZM173.545 67.7781V72.252L173.181 71.9455H174.664C174.94 71.9455 175.155 71.8737 175.31 71.7301C175.464 71.5865 175.542 71.3987 175.542 71.1667C175.542 70.9126 175.467 70.7193 175.318 70.5867C175.169 70.4542 174.956 70.3879 174.68 70.3879H173.181V69.5345H174.531C174.802 69.5345 175.006 69.4765 175.144 69.3605C175.288 69.2445 175.36 69.0733 175.36 68.8468C175.36 68.637 175.288 68.4685 175.144 68.3415C175 68.2089 174.796 68.1426 174.531 68.1426H173.214L173.545 67.7781Z" fill="white"/>
<path d="M168.332 72.9231C168.205 72.9231 168.086 72.89 167.976 72.8237C167.865 72.7574 167.777 72.669 167.711 72.5586C167.644 72.4481 167.611 72.3294 167.611 72.2023C167.611 72.0698 167.644 71.951 167.711 71.8461C167.777 71.7356 167.865 71.6472 167.976 71.5809C168.086 71.5146 168.205 71.4815 168.332 71.4815C168.47 71.4815 168.592 71.5146 168.697 71.5809C168.807 71.6472 168.896 71.7356 168.962 71.8461C169.028 71.951 169.061 72.0698 169.061 72.2023C169.061 72.3294 169.028 72.4481 168.962 72.5586C168.896 72.669 168.807 72.7574 168.697 72.8237C168.592 72.89 168.47 72.9231 168.332 72.9231Z" fill="white"/>
<path d="M164.427 72.9563C164.062 72.9563 163.739 72.8679 163.457 72.6912C163.176 72.5089 162.955 72.2603 162.794 71.9455C162.64 71.6251 162.562 71.2551 162.562 70.8353C162.562 70.4155 162.64 70.0482 162.794 69.7334C162.955 69.4185 163.176 69.1727 163.457 68.996C163.739 68.8192 164.065 68.7309 164.435 68.7309C164.794 68.7309 165.106 68.8165 165.371 68.9877C165.642 69.1534 165.852 69.3964 166.001 69.7168C166.15 70.0316 166.225 70.4045 166.225 70.8353C166.225 71.2606 166.15 71.6334 166.001 71.9538C165.852 72.2686 165.642 72.5144 165.371 72.6912C165.101 72.8679 164.786 72.9563 164.427 72.9563ZM164.592 72.0946C164.902 72.0946 165.15 71.9814 165.338 71.7549C165.531 71.5229 165.628 71.2192 165.628 70.8436C165.628 70.468 165.531 70.1669 165.338 69.9405C165.15 69.7085 164.902 69.5925 164.592 69.5925C164.283 69.5925 164.029 69.7085 163.83 69.9405C163.637 70.1669 163.54 70.4652 163.54 70.8353C163.54 71.2109 163.637 71.5147 163.83 71.7466C164.029 71.9786 164.283 72.0946 164.592 72.0946ZM165.819 72.8651L165.587 71.9786H165.661V69.8162H165.587V67.223H166.548V72.8651H165.819Z" fill="white"/>
<path d="M161.235 72.9397C160.848 72.9397 160.542 72.8347 160.315 72.6248C160.094 72.4094 159.984 72.0725 159.984 71.6141V68.8717V68.822L160.166 67.8857H160.945V71.5312C160.945 71.6969 160.986 71.8184 161.069 71.8957C161.152 71.9731 161.26 72.0117 161.392 72.0117C161.481 72.0117 161.561 72.0062 161.632 71.9952C161.704 71.9841 161.768 71.9703 161.823 71.9537V72.8485C161.74 72.8762 161.652 72.8982 161.558 72.9148C161.469 72.9314 161.362 72.9397 161.235 72.9397ZM159.362 69.7002V68.822H161.823V69.7002H159.362Z" fill="white"/>
<path d="M158.807 72.8651H155.484V67.223H156.445V72.1858L156.28 71.9538H158.807V72.8651Z" fill="white"/>
<path d="M151.233 72.9231C151.105 72.9231 150.987 72.89 150.876 72.8237C150.766 72.7574 150.677 72.669 150.611 72.5586C150.545 72.4481 150.512 72.3294 150.512 72.2023C150.512 72.0698 150.545 71.951 150.611 71.8461C150.677 71.7356 150.766 71.6472 150.876 71.5809C150.987 71.5146 151.105 71.4815 151.233 71.4815C151.371 71.4815 151.492 71.5146 151.597 71.5809C151.708 71.6472 151.796 71.7356 151.862 71.8461C151.928 71.951 151.962 72.0698 151.962 72.2023C151.962 72.3294 151.928 72.4481 151.862 72.5586C151.796 72.669 151.708 72.7574 151.597 72.8237C151.492 72.89 151.371 72.9231 151.233 72.9231Z" fill="white"/>
<path d="M148.953 72.9397C148.567 72.9397 148.26 72.8347 148.034 72.6248C147.813 72.4094 147.702 72.0725 147.702 71.6141V68.8717V68.822L147.885 67.8857H148.664V71.5312C148.664 71.6969 148.705 71.8184 148.788 71.8957C148.871 71.9731 148.978 72.0117 149.111 72.0117C149.199 72.0117 149.279 72.0062 149.351 71.9952C149.423 71.9841 149.487 71.9703 149.542 71.9537V72.8485C149.459 72.8762 149.371 72.8982 149.277 72.9148C149.188 72.9314 149.081 72.9397 148.953 72.9397ZM147.081 69.7002V68.822H149.542V69.7002H147.081Z" fill="white"/>
<path d="M146.577 68.822L145.069 72.8651H144.15L142.567 68.822H143.603L144.697 71.9372H144.514L145.558 68.822H146.577Z" fill="white"/>
<path d="M138.904 70.2222H140.023C140.365 70.2222 140.636 70.131 140.835 69.9488C141.039 69.7665 141.141 69.5124 141.141 69.1865C141.141 68.8386 141.042 68.5762 140.843 68.3995C140.644 68.2227 140.374 68.1343 140.031 68.1343H138.904L139.095 67.9189V72.8651H138.134V67.223H140.147C140.55 67.223 140.898 67.3086 141.191 67.4798C141.489 67.6455 141.721 67.8775 141.887 68.1758C142.053 68.4685 142.136 68.8054 142.136 69.1865C142.136 69.5621 142.053 69.8991 141.887 70.1973C141.721 70.4901 141.489 70.7193 141.191 70.885C140.893 71.0507 140.545 71.1335 140.147 71.1335H138.904V70.2222Z" fill="white"/>
<path d="M133.235 72.9645C132.937 72.9645 132.65 72.8982 132.374 72.7657C132.097 72.6331 131.86 72.4094 131.661 72.0946L132.316 71.5975C132.481 71.7963 132.639 71.9399 132.788 72.0283C132.937 72.1167 133.119 72.1609 133.335 72.1609C133.489 72.1609 133.611 72.1222 133.699 72.0449C133.788 71.9675 133.832 71.8709 133.832 71.7549C133.832 71.6776 133.81 71.6085 133.766 71.5478C133.721 71.487 133.639 71.4318 133.517 71.3821C133.401 71.3268 133.233 71.2716 133.012 71.2164C132.603 71.1114 132.291 70.9678 132.075 70.7855C131.866 70.6033 131.761 70.3326 131.761 69.9736C131.761 69.7471 131.819 69.54 131.935 69.3522C132.051 69.1589 132.219 69.007 132.44 68.8965C132.661 68.7805 132.92 68.7225 133.219 68.7225C133.578 68.7225 133.884 68.7943 134.138 68.9379C134.392 69.0816 134.594 69.2528 134.743 69.4516L134.072 69.9819C133.978 69.8769 133.851 69.7803 133.691 69.6919C133.536 69.598 133.349 69.551 133.128 69.551C132.995 69.551 132.876 69.5842 132.771 69.6505C132.666 69.7168 132.614 69.8106 132.614 69.9322C132.614 70.0482 132.666 70.1448 132.771 70.2221C132.876 70.2995 133.075 70.3713 133.368 70.4376C133.859 70.5535 134.21 70.7082 134.42 70.9015C134.63 71.0948 134.735 71.3489 134.735 71.6638C134.735 71.9289 134.666 72.1609 134.528 72.3597C134.39 72.553 134.207 72.7022 133.981 72.8071C133.755 72.9121 133.506 72.9645 133.235 72.9645Z" fill="white"/>
<path d="M129.542 68.7308C129.83 68.7308 130.056 68.7778 130.222 68.8717C130.387 68.9656 130.512 69.0954 130.595 69.2611C130.677 69.4213 130.73 69.6035 130.752 69.8079C130.78 70.0067 130.793 70.2139 130.793 70.4293V72.8651H129.832V70.3464C129.832 70.0758 129.774 69.8963 129.658 69.8079C129.548 69.714 129.41 69.6671 129.244 69.6671C129.089 69.6671 128.929 69.7002 128.764 69.7665C128.603 69.8272 128.457 69.9128 128.324 70.0233C128.192 70.1283 128.084 70.2498 128.001 70.3879L127.927 69.8659H128.134V72.8651H127.173V68.822H127.894L128.093 69.5593L127.811 69.5676C127.965 69.3964 128.134 69.25 128.316 69.1285C128.498 69.0015 128.692 68.9048 128.896 68.8385C129.106 68.7667 129.321 68.7308 129.542 68.7308Z" fill="white"/>
<path d="M124.193 72.9563C123.779 72.9563 123.415 72.8679 123.1 72.6911C122.785 72.5144 122.539 72.2686 122.362 71.9538C122.191 71.6334 122.105 71.2661 122.105 70.8518C122.105 70.4265 122.191 70.0565 122.362 69.7416C122.539 69.4213 122.785 69.1727 123.1 68.996C123.415 68.8192 123.779 68.7308 124.193 68.7308C124.608 68.7308 124.972 68.8192 125.287 68.996C125.602 69.1727 125.845 69.4213 126.016 69.7416C126.193 70.0565 126.281 70.4265 126.281 70.8518C126.281 71.2661 126.193 71.6334 126.016 71.9538C125.845 72.2686 125.602 72.5144 125.287 72.6911C124.972 72.8679 124.608 72.9563 124.193 72.9563ZM124.193 72.0283C124.525 72.0283 124.793 71.9206 124.997 71.7052C125.201 71.4843 125.304 71.197 125.304 70.8435C125.304 70.49 125.201 70.2056 124.997 69.9902C124.793 69.7692 124.525 69.6588 124.193 69.6588C123.862 69.6588 123.594 69.7665 123.39 69.9819C123.185 70.1973 123.083 70.4845 123.083 70.8435C123.083 71.197 123.185 71.4843 123.39 71.7052C123.594 71.9206 123.862 72.0283 124.193 72.0283Z" fill="white"/>
<path d="M121.167 72.8651H120.206V68.822H121.167V72.8651ZM120.082 67.5626C120.082 67.3859 120.135 67.2423 120.239 67.1318C120.35 67.0158 120.499 66.9578 120.687 66.9578C120.864 66.9578 121.007 67.0158 121.118 67.1318C121.228 67.2423 121.283 67.3859 121.283 67.5626C121.283 67.7394 121.228 67.883 121.118 67.9935C121.007 68.1039 120.864 68.1592 120.687 68.1592C120.499 68.1592 120.35 68.1039 120.239 67.9935C120.135 67.883 120.082 67.7394 120.082 67.5626Z" fill="white"/>
<path d="M118.54 72.9397C118.154 72.9397 117.847 72.8347 117.621 72.6248C117.4 72.4094 117.289 72.0725 117.289 71.6141V68.8717V68.822L117.472 67.8857H118.25V71.5312C118.25 71.6969 118.292 71.8184 118.375 71.8957C118.458 71.9731 118.565 72.0117 118.698 72.0117C118.786 72.0117 118.866 72.0062 118.938 71.9952C119.01 71.9841 119.073 71.9703 119.129 71.9537V72.8485C119.046 72.8762 118.957 72.8982 118.864 72.9148C118.775 72.9314 118.667 72.9397 118.54 72.9397ZM116.668 69.7002V68.822H119.129V69.7002H116.668Z" fill="white"/>
<path d="M113.514 72.9562C113.21 72.9562 112.967 72.9093 112.784 72.8154C112.608 72.7215 112.475 72.5945 112.387 72.4343C112.298 72.2741 112.238 72.0918 112.205 71.8875C112.177 71.6831 112.163 71.4704 112.163 71.2495V68.822H113.124V71.3406C113.124 71.6058 113.182 71.7853 113.298 71.8792C113.42 71.9676 113.561 72.0117 113.721 72.0117C113.881 72.0117 114.038 71.9814 114.193 71.9206C114.353 71.8598 114.499 71.7742 114.632 71.6638C114.77 71.5533 114.878 71.4318 114.955 71.2992L115.03 71.8129H114.823V68.822H115.784V72.8651H115.063L114.864 72.1194H115.137C114.999 72.2851 114.842 72.4315 114.665 72.5586C114.488 72.6856 114.303 72.785 114.11 72.8568C113.917 72.9231 113.718 72.9562 113.514 72.9562Z" fill="white"/>
<path d="M110.862 72.9066C110.702 72.9066 110.556 72.8707 110.423 72.7989C110.29 72.7215 110.186 72.6111 110.108 72.4675C110.031 72.3183 109.992 72.1305 109.992 71.9041V67.223H110.937V71.5644C110.937 71.7466 110.978 71.8682 111.061 71.9289C111.144 71.9897 111.24 72.0201 111.351 72.0201V72.8403C111.285 72.8624 111.207 72.8789 111.119 72.89C111.036 72.901 110.951 72.9066 110.862 72.9066Z" fill="white"/>
<path d="M107.021 72.9563C106.607 72.9563 106.243 72.8679 105.928 72.6911C105.613 72.5144 105.367 72.2686 105.19 71.9538C105.019 71.6334 104.934 71.2661 104.934 70.8518C104.934 70.4265 105.019 70.0565 105.19 69.7416C105.367 69.4213 105.613 69.1727 105.928 68.996C106.243 68.8192 106.607 68.7308 107.021 68.7308C107.436 68.7308 107.8 68.8192 108.115 68.996C108.43 69.1727 108.673 69.4213 108.844 69.7416C109.021 70.0565 109.109 70.4265 109.109 70.8518C109.109 71.2661 109.021 71.6334 108.844 71.9538C108.673 72.2686 108.43 72.5144 108.115 72.6911C107.8 72.8679 107.436 72.9563 107.021 72.9563ZM107.021 72.0283C107.353 72.0283 107.621 71.9206 107.825 71.7052C108.029 71.4843 108.132 71.197 108.132 70.8435C108.132 70.49 108.029 70.2056 107.825 69.9902C107.621 69.7692 107.353 69.6588 107.021 69.6588C106.69 69.6588 106.422 69.7665 106.218 69.9819C106.013 70.1973 105.911 70.4845 105.911 70.8435C105.911 71.197 106.013 71.4843 106.218 71.7052C106.422 71.9206 106.69 72.0283 107.021 72.0283Z" fill="white"/>
<path d="M102.448 72.9977C102.145 72.9977 101.855 72.9535 101.579 72.8652C101.302 72.7713 101.051 72.6249 100.825 72.426C100.598 72.2217 100.408 71.9538 100.253 71.6224L101.032 71.1584C101.214 71.4788 101.421 71.7135 101.653 71.8626C101.885 72.0118 102.164 72.0863 102.49 72.0863C102.794 72.0863 103.023 72.0201 103.178 71.8875C103.338 71.7549 103.418 71.5727 103.418 71.3407C103.418 71.2026 103.382 71.0838 103.31 70.9844C103.244 70.8795 103.122 70.7828 102.946 70.6944C102.774 70.6005 102.529 70.5149 102.208 70.4376C101.766 70.3271 101.421 70.1918 101.173 70.0316C100.924 69.8659 100.75 69.6754 100.651 69.46C100.551 69.239 100.501 68.9988 100.501 68.7392C100.501 68.4188 100.576 68.1399 100.725 67.9024C100.874 67.6648 101.09 67.477 101.371 67.339C101.653 67.2009 101.987 67.1318 102.374 67.1318C102.832 67.1318 103.211 67.2202 103.509 67.397C103.813 67.5737 104.064 67.8085 104.263 68.1012L103.476 68.6232C103.316 68.4188 103.139 68.2752 102.946 68.1923C102.758 68.104 102.562 68.0598 102.357 68.0598C102.065 68.0598 101.841 68.1178 101.686 68.2338C101.532 68.3442 101.454 68.5072 101.454 68.7226C101.454 68.9049 101.529 69.0623 101.678 69.1948C101.827 69.3274 102.117 69.4462 102.548 69.5511C103.012 69.6671 103.379 69.8052 103.65 69.9654C103.92 70.12 104.111 70.3106 104.222 70.537C104.337 70.758 104.395 71.0231 104.395 71.3324C104.395 71.6472 104.315 71.9289 104.155 72.1775C103.995 72.426 103.769 72.6249 103.476 72.774C103.189 72.9231 102.846 72.9977 102.448 72.9977Z" fill="white"/>
<path d="M94.9481 72.426L93.3408 68.822H94.335L95.7932 72.0946L94.9481 72.426ZM93.9539 74.4393L96.4643 68.822H97.4585L94.9481 74.4393H93.9539Z" fill="white"/>
<path d="M92.0805 72.9397C91.6938 72.9397 91.3873 72.8347 91.1608 72.6248C90.9399 72.4094 90.8294 72.0725 90.8294 71.6141V68.8717V68.822L91.0117 67.8857H91.7905V71.5312C91.7905 71.6969 91.8319 71.8184 91.9148 71.8957C91.9976 71.9731 92.1053 72.0117 92.2379 72.0117C92.3262 72.0117 92.4063 72.0062 92.4781 71.9952C92.5499 71.9841 92.6135 71.9703 92.6687 71.9537V72.8485C92.5858 72.8762 92.4975 72.8982 92.4036 72.9148C92.3152 72.9314 92.2075 72.9397 92.0805 72.9397ZM90.208 69.7002V68.822H92.6687V69.7002H90.208Z" fill="white"/>
<path d="M89.3031 72.8651H88.342V68.822H89.3031V72.8651ZM88.2178 67.5626C88.2178 67.3859 88.2702 67.2423 88.3752 67.1318C88.4857 67.0158 88.6348 66.9578 88.8226 66.9578C88.9993 66.9578 89.1429 67.0158 89.2534 67.1318C89.3639 67.2423 89.4191 67.3859 89.4191 67.5626C89.4191 67.7394 89.3639 67.883 89.2534 67.9935C89.1429 68.1039 88.9993 68.1592 88.8226 68.1592C88.6348 68.1592 88.4857 68.1039 88.3752 67.9935C88.2702 67.883 88.2178 67.7394 88.2178 67.5626Z" fill="white"/>
<path d="M86.9178 72.9066C86.7576 72.9066 86.6112 72.8707 86.4787 72.7989C86.3461 72.7215 86.2412 72.6111 86.1638 72.4675C86.0865 72.3183 86.0479 72.1305 86.0479 71.9041V67.223H86.9924V71.5644C86.9924 71.7466 87.0338 71.8682 87.1166 71.9289C87.1995 71.9897 87.2961 72.0201 87.4066 72.0201V72.8403C87.3403 72.8624 87.263 72.8789 87.1746 72.89C87.0918 72.901 87.0062 72.9066 86.9178 72.9066Z" fill="white"/>
<path d="M84.8695 72.8651H83.9085V68.822H84.8695V72.8651ZM83.7842 67.5626C83.7842 67.3859 83.8367 67.2423 83.9416 67.1318C84.0521 67.0158 84.2012 66.9578 84.389 66.9578C84.5657 66.9578 84.7094 67.0158 84.8198 67.1318C84.9303 67.2423 84.9855 67.3859 84.9855 67.5626C84.9855 67.7394 84.9303 67.883 84.8198 67.9935C84.7094 68.1039 84.5657 68.1592 84.389 68.1592C84.2012 68.1592 84.0521 68.1039 83.9416 67.9935C83.8367 67.883 83.7842 67.7394 83.7842 67.5626Z" fill="white"/>
<path d="M81.1137 72.9563C80.7547 72.9563 80.4398 72.8679 80.1692 72.6912C79.9041 72.5144 79.6942 72.2686 79.5395 71.9538C79.3904 71.6334 79.3158 71.2606 79.3158 70.8353C79.3158 70.4045 79.3904 70.0316 79.5395 69.7168C79.6886 69.3964 79.8958 69.1534 80.1609 68.9877C80.4315 68.8165 80.7491 68.7309 81.1137 68.7309C81.4838 68.7309 81.8096 68.8192 82.0913 68.996C82.373 69.1727 82.5912 69.4185 82.7459 69.7334C82.9005 70.0482 82.9778 70.4155 82.9778 70.8353C82.9778 71.2551 82.9005 71.6251 82.7459 71.9455C82.5912 72.2603 82.373 72.5089 82.0913 72.6912C81.8152 72.8679 81.4893 72.9563 81.1137 72.9563ZM79.001 72.8651V67.223H79.9621V69.8162H79.8792V71.9786H79.9621L79.7218 72.8651H79.001ZM80.9563 72.0946C81.2656 72.0946 81.5169 71.9786 81.7102 71.7466C81.9035 71.5147 82.0002 71.2109 82.0002 70.8353C82.0002 70.4652 81.9035 70.1669 81.7102 69.9405C81.5169 69.7085 81.2656 69.5925 80.9563 69.5925C80.6525 69.5925 80.4012 69.7085 80.2023 69.9405C80.009 70.1669 79.9123 70.468 79.9123 70.8436C79.9123 71.2192 80.009 71.5229 80.2023 71.7549C80.4012 71.9814 80.6525 72.0946 80.9563 72.0946Z" fill="white"/>
<path d="M75.9605 72.9811C75.6512 72.9811 75.3833 72.9259 75.1569 72.8154C74.936 72.6994 74.7647 72.5392 74.6432 72.3349C74.5217 72.1305 74.4609 71.8875 74.4609 71.6058C74.4609 71.3296 74.5217 71.0893 74.6432 70.885C74.7703 70.6806 74.947 70.5204 75.1735 70.4044C75.3999 70.2829 75.6623 70.2222 75.9605 70.2222C76.3527 70.2222 76.6675 70.3105 76.9051 70.4873C77.1481 70.664 77.3138 70.9126 77.4022 71.2329L76.9216 71.1998V70.1973C76.9216 70.0316 76.8636 69.8825 76.7476 69.7499C76.6372 69.6173 76.4466 69.5511 76.176 69.5511C76.0213 69.5511 75.8501 69.5704 75.6623 69.6091C75.4745 69.6422 75.2812 69.7057 75.0823 69.7996L74.7923 69.0871C75.0243 68.9711 75.2674 68.8827 75.5214 68.822C75.781 68.7612 76.0379 68.7308 76.292 68.7308C76.651 68.7308 76.9465 68.7971 77.1785 68.9297C77.416 69.0567 77.5927 69.2307 77.7087 69.4516C77.8247 69.6726 77.8827 69.9267 77.8827 70.2139V72.8651H77.1453L76.9299 72.1112L77.4022 71.9703C77.3083 72.3017 77.1343 72.553 76.8802 72.7243C76.6316 72.8955 76.3251 72.9811 75.9605 72.9811ZM76.1842 72.194C76.4052 72.194 76.5819 72.1415 76.7145 72.0366C76.8526 71.9317 76.9216 71.7881 76.9216 71.6058C76.9216 71.4125 76.8526 71.2661 76.7145 71.1667C76.5819 71.0617 76.4052 71.0092 76.1842 71.0092C75.9633 71.0092 75.7838 71.0617 75.6457 71.1667C75.5132 71.2661 75.4469 71.4125 75.4469 71.6058C75.4469 71.7881 75.5132 71.9317 75.6457 72.0366C75.7838 72.1415 75.9633 72.194 76.1842 72.194Z" fill="white"/>
<path d="M72.3735 68.7308C72.6607 68.7308 72.8871 68.7778 73.0528 68.8717C73.2185 68.9656 73.3428 69.0954 73.4257 69.2611C73.5085 69.4213 73.561 69.6035 73.5831 69.8079C73.6107 70.0067 73.6245 70.2139 73.6245 70.4293V72.8651H72.6634V70.3464C72.6634 70.0758 72.6054 69.8963 72.4894 69.8079C72.379 69.714 72.2409 69.6671 72.0752 69.6671C71.9205 69.6671 71.7604 69.7002 71.5947 69.7665C71.4345 69.8272 71.2881 69.9128 71.1555 70.0233C71.023 70.1283 70.9153 70.2498 70.8324 70.3879L70.7579 69.8659H70.965V72.8651H70.0039V68.822H70.7247L70.9236 69.5593L70.6419 69.5676C70.7965 69.3964 70.965 69.25 71.1473 69.1285C71.3295 69.0015 71.5228 68.9048 71.7272 68.8385C71.9371 68.7667 72.1525 68.7308 72.3735 68.7308Z" fill="white"/>
<path d="M68.8256 72.8651H67.8645V68.822H68.8256V72.8651ZM67.7402 67.5626C67.7402 67.3859 67.7927 67.2423 67.8977 67.1318C68.0081 67.0158 68.1573 66.9578 68.345 66.9578C68.5218 66.9578 68.6654 67.0158 68.7759 67.1318C68.8863 67.2423 68.9416 67.3859 68.9416 67.5626C68.9416 67.7394 68.8863 67.883 68.7759 67.9935C68.6654 68.1039 68.5218 68.1592 68.345 68.1592C68.1573 68.1592 68.0081 68.1039 67.8977 67.9935C67.7927 67.883 67.7402 67.7394 67.7402 67.5626Z" fill="white"/>
<path d="M64.8072 72.9811C64.4979 72.9811 64.23 72.9259 64.0036 72.8154C63.7826 72.6994 63.6114 72.5392 63.4899 72.3349C63.3684 72.1305 63.3076 71.8875 63.3076 71.6058C63.3076 71.3296 63.3684 71.0893 63.4899 70.885C63.6169 70.6806 63.7937 70.5204 64.0201 70.4044C64.2466 70.2829 64.509 70.2222 64.8072 70.2222C65.1994 70.2222 65.5142 70.3105 65.7517 70.4873C65.9948 70.664 66.1605 70.9126 66.2488 71.2329L65.7683 71.1998V70.1973C65.7683 70.0316 65.7103 69.8825 65.5943 69.7499C65.4838 69.6173 65.2933 69.5511 65.0226 69.5511C64.868 69.5511 64.6968 69.5704 64.509 69.6091C64.3212 69.6422 64.1278 69.7057 63.929 69.7996L63.639 69.0871C63.871 68.9711 64.114 68.8827 64.3681 68.822C64.6277 68.7612 64.8846 68.7308 65.1386 68.7308C65.4977 68.7308 65.7932 68.7971 66.0251 68.9297C66.2627 69.0567 66.4394 69.2307 66.5554 69.4516C66.6714 69.6726 66.7294 69.9267 66.7294 70.2139V72.8651H65.992L65.7766 72.1112L66.2488 71.9703C66.1549 72.3017 65.981 72.553 65.7269 72.7243C65.4783 72.8955 65.1718 72.9811 64.8072 72.9811ZM65.0309 72.194C65.2519 72.194 65.4286 72.1415 65.5612 72.0366C65.6993 71.9317 65.7683 71.7881 65.7683 71.6058C65.7683 71.4125 65.6993 71.2661 65.5612 71.1667C65.4286 71.0617 65.2519 71.0092 65.0309 71.0092C64.81 71.0092 64.6305 71.0617 64.4924 71.1667C64.3598 71.2661 64.2936 71.4125 64.2936 71.6058C64.2936 71.7881 64.3598 71.9317 64.4924 72.0366C64.6305 72.1415 64.81 72.194 65.0309 72.194Z" fill="white"/>
<path d="M61.9476 72.9397C61.561 72.9397 61.2544 72.8347 61.028 72.6248C60.807 72.4094 60.6966 72.0725 60.6966 71.6141V68.8717V68.822L60.8789 67.8857H61.6577V71.5312C61.6577 71.6969 61.6991 71.8184 61.7819 71.8957C61.8648 71.9731 61.9725 72.0117 62.1051 72.0117C62.1934 72.0117 62.2735 72.0062 62.3453 71.9952C62.4171 71.9841 62.4806 71.9703 62.5359 71.9537V72.8485C62.453 72.8762 62.3647 72.8982 62.2708 72.9148C62.1824 72.9314 62.0747 72.9397 61.9476 72.9397ZM60.0752 69.7002V68.822H62.5359V69.7002H60.0752Z" fill="white"/>
<path d="M57.9004 72.9645C57.6021 72.9645 57.3149 72.8982 57.0387 72.7657C56.7625 72.6331 56.525 72.4094 56.3262 72.0946L56.9807 71.5975C57.1464 71.7963 57.3038 71.9399 57.453 72.0283C57.6021 72.1167 57.7844 72.1609 57.9998 72.1609C58.1544 72.1609 58.2759 72.1222 58.3643 72.0449C58.4527 71.9675 58.4969 71.8709 58.4969 71.7549C58.4969 71.6776 58.4748 71.6085 58.4306 71.5478C58.3864 71.487 58.3036 71.4318 58.182 71.3821C58.0661 71.3268 57.8976 71.2716 57.6767 71.2164C57.2679 71.1114 56.9558 70.9678 56.7404 70.7855C56.5305 70.6033 56.4256 70.3326 56.4256 69.9736C56.4256 69.7471 56.4836 69.54 56.5996 69.3522C56.7156 69.1589 56.884 69.007 57.105 68.8965C57.3259 68.7805 57.5855 68.7225 57.8838 68.7225C58.2428 68.7225 58.5494 68.7943 58.8034 68.9379C59.0575 69.0816 59.2591 69.2528 59.4082 69.4516L58.7371 69.9819C58.6433 69.8769 58.5162 69.7803 58.356 69.6919C58.2014 69.598 58.0136 69.551 57.7926 69.551C57.6601 69.551 57.5413 69.5842 57.4364 69.6505C57.3314 69.7168 57.279 69.8106 57.279 69.9322C57.279 70.0482 57.3314 70.1448 57.4364 70.2221C57.5413 70.2995 57.7402 70.3713 58.0329 70.4376C58.5245 70.5535 58.8752 70.7082 59.0851 70.9015C59.295 71.0948 59.4 71.3489 59.4 71.6638C59.4 71.9289 59.3309 72.1609 59.1928 72.3597C59.0547 72.553 58.8725 72.7022 58.646 72.8071C58.4196 72.9121 58.171 72.9645 57.9004 72.9645Z" fill="white"/>
<path d="M53.1454 72.9562C52.8416 72.9562 52.5986 72.9093 52.4163 72.8154C52.2396 72.7215 52.107 72.5945 52.0186 72.4343C51.9302 72.2741 51.8695 72.0918 51.8363 71.8875C51.8087 71.6831 51.7949 71.4704 51.7949 71.2495V68.822H52.756V71.3406C52.756 71.6058 52.814 71.7853 52.93 71.8792C53.0515 71.9676 53.1923 72.0117 53.3525 72.0117C53.5127 72.0117 53.6701 71.9814 53.8248 71.9206C53.985 71.8598 54.1313 71.7742 54.2639 71.6638C54.402 71.5533 54.5097 71.4318 54.587 71.2992L54.6616 71.8129H54.4545V68.822H55.4155V72.8651H54.6947L54.4959 72.1194H54.7693C54.6312 72.2851 54.4738 72.4315 54.297 72.5586C54.1203 72.6856 53.9353 72.785 53.7419 72.8568C53.5486 72.9231 53.3498 72.9562 53.1454 72.9562Z" fill="white"/>
<path d="M48.9817 72.9977C48.6779 72.9977 48.3879 72.9535 48.1118 72.8652C47.8356 72.7713 47.5843 72.6249 47.3578 72.426C47.1313 72.2217 46.9408 71.9538 46.7861 71.6224L47.5649 71.1584C47.7472 71.4788 47.9543 71.7135 48.1863 71.8626C48.4183 72.0118 48.6972 72.0863 49.0231 72.0863C49.3269 72.0863 49.5561 72.0201 49.7108 71.8875C49.871 71.7549 49.9511 71.5727 49.9511 71.3407C49.9511 71.2026 49.9152 71.0838 49.8433 70.9844C49.7771 70.8795 49.6556 70.7828 49.4788 70.6944C49.3076 70.6005 49.0618 70.5149 48.7414 70.4376C48.2996 70.3271 47.9543 70.1918 47.7058 70.0316C47.4572 69.8659 47.2832 69.6754 47.1838 69.46C47.0844 69.239 47.0347 68.9988 47.0347 68.7392C47.0347 68.4188 47.1093 68.1399 47.2584 67.9024C47.4075 67.6648 47.6229 67.477 47.9046 67.339C48.1863 67.2009 48.5205 67.1318 48.9071 67.1318C49.3656 67.1318 49.7439 67.2202 50.0422 67.397C50.346 67.5737 50.5973 67.8085 50.7961 68.1012L50.0091 68.6232C49.8489 68.4188 49.6721 68.2752 49.4788 68.1923C49.291 68.104 49.0949 68.0598 48.8906 68.0598C48.5978 68.0598 48.3741 68.1178 48.2195 68.2338C48.0648 68.3442 47.9875 68.5072 47.9875 68.7226C47.9875 68.9049 48.062 69.0623 48.2112 69.1948C48.3603 69.3274 48.6503 69.4462 49.0811 69.5511C49.5451 69.6671 49.9124 69.8052 50.183 69.9654C50.4537 70.12 50.6442 70.3106 50.7547 70.537C50.8707 70.758 50.9287 71.0231 50.9287 71.3324C50.9287 71.6472 50.8486 71.9289 50.6884 72.1775C50.5283 72.426 50.3018 72.6249 50.0091 72.774C49.7218 72.9231 49.3794 72.9977 48.9817 72.9977Z" fill="white"/>
<path d="M41.4813 72.426L39.874 68.822H40.8682L42.3264 72.0946L41.4813 72.426ZM40.4871 74.4393L42.9975 68.822H43.9917L41.4813 74.4393H40.4871Z" fill="white"/>
<path d="M37.1212 74.5139C36.8948 74.5139 36.6738 74.4807 36.4584 74.4144C36.2485 74.3537 36.0552 74.2487 35.8784 74.0996C35.7017 73.956 35.5498 73.7627 35.4228 73.5196L35.3565 73.3954L36.0939 73.0143C36.2319 73.2407 36.3783 73.4092 36.533 73.5196C36.6876 73.6301 36.8865 73.6853 37.1295 73.6853C37.4333 73.6853 37.6763 73.5887 37.8586 73.3954C38.0464 73.202 38.1403 72.9065 38.1403 72.5089V71.5644H38.2231V69.7002H38.1403L38.3723 68.822H39.1014V72.3349C39.1014 72.8099 39.0157 73.2103 38.8445 73.5362C38.6788 73.8621 38.4468 74.1051 38.1486 74.2653C37.8558 74.431 37.5134 74.5139 37.1212 74.5139ZM36.9969 72.6248C36.6269 72.6248 36.301 72.5448 36.0193 72.3846C35.7376 72.2244 35.5167 71.9979 35.3565 71.7052C35.1963 71.4125 35.1162 71.0728 35.1162 70.6861C35.1162 70.294 35.1935 69.9543 35.3482 69.6671C35.5084 69.3743 35.7293 69.1451 36.011 68.9794C36.2982 68.8137 36.6269 68.7308 36.9969 68.7308C37.3449 68.7308 37.6515 68.8137 37.9166 68.9794C38.1817 69.1396 38.3861 69.366 38.5297 69.6588C38.6788 69.9515 38.7534 70.294 38.7534 70.6861C38.7534 71.0783 38.6788 71.4207 38.5297 71.7135C38.3861 72.0062 38.1817 72.2327 37.9166 72.3929C37.657 72.5475 37.3504 72.6248 36.9969 72.6248ZM37.1461 71.7963C37.4554 71.7963 37.7067 71.6942 37.9 71.4898C38.0933 71.2799 38.19 71.0092 38.19 70.6778C38.19 70.3464 38.0933 70.0786 37.9 69.8742C37.7067 69.6643 37.4554 69.5593 37.1461 69.5593C36.8368 69.5593 36.5827 69.6643 36.3838 69.8742C36.1905 70.0786 36.0939 70.3492 36.0939 70.6861C36.0939 71.012 36.1905 71.2799 36.3838 71.4898C36.5827 71.6942 36.8368 71.7963 37.1461 71.7963Z" fill="white"/>
<path d="M33.2169 68.822L33.4572 69.9239V72.8651H32.4961V68.822H33.2169ZM33.2832 70.3796L33.0843 70.2884V69.5676L33.1589 69.4682C33.2141 69.3743 33.3025 69.2694 33.424 69.1534C33.5455 69.0374 33.6864 68.938 33.8466 68.8551C34.0123 68.7723 34.1807 68.7308 34.352 68.7308C34.4348 68.7308 34.5121 68.7364 34.5839 68.7474C34.6613 68.7585 34.7193 68.7778 34.7579 68.8054V69.6753H34.4928C34.1283 69.6753 33.8549 69.7333 33.6726 69.8493C33.4903 69.9598 33.3605 70.1365 33.2832 70.3796Z" fill="white"/>
<path d="M29.6041 72.948C29.2065 72.948 28.8585 72.8624 28.5602 72.6911C28.2619 72.5144 28.0272 72.2686 27.856 71.9538C27.6903 71.6389 27.6074 71.2716 27.6074 70.8518C27.6074 70.4265 27.6903 70.0565 27.856 69.7416C28.0272 69.4213 28.2619 69.1727 28.5602 68.996C28.8585 68.8192 29.2065 68.7308 29.6041 68.7308C30.0074 68.7308 30.3581 68.822 30.6564 69.0042C30.9601 69.181 31.1949 69.4295 31.3606 69.7499C31.5263 70.0647 31.6091 70.4293 31.6091 70.8435C31.6091 70.8933 31.6064 70.943 31.6009 70.9927C31.6009 71.0424 31.5981 71.0866 31.5926 71.1252H28.4525V70.3547H30.8801L30.6812 70.7938C30.6812 70.4127 30.5928 70.1006 30.4161 69.8576C30.2393 69.6146 29.9714 69.4931 29.6124 69.4931C29.2865 69.4931 29.0269 69.5953 28.8336 69.7996C28.6458 69.9985 28.5519 70.2636 28.5519 70.595V71.0341C28.5519 71.3766 28.6458 71.65 28.8336 71.8543C29.0269 72.0532 29.2921 72.1526 29.629 72.1526C29.9328 72.1526 30.1675 72.0891 30.3332 71.962C30.5045 71.835 30.6508 71.6776 30.7723 71.4898L31.46 71.904C31.2777 72.2465 31.0347 72.5061 30.7309 72.6828C30.4271 72.8596 30.0515 72.948 29.6041 72.948Z" fill="white"/>
<path d="M25.5297 68.7308C25.8169 68.7308 26.0434 68.7778 26.2091 68.8717C26.3748 68.9656 26.4991 69.0954 26.5819 69.2611C26.6648 69.4213 26.7172 69.6035 26.7393 69.8079C26.767 70.0067 26.7808 70.2139 26.7808 70.4293V72.8651H25.8197V70.3464C25.8197 70.0758 25.7617 69.8963 25.6457 69.8079C25.5352 69.714 25.3971 69.6671 25.2314 69.6671C25.0768 69.6671 24.9166 69.7002 24.7509 69.7665C24.5907 69.8272 24.4444 69.9128 24.3118 70.0233C24.1792 70.1283 24.0715 70.2498 23.9887 70.3879L23.9141 69.8659H24.1212V72.8651H23.1602V68.822H23.881L24.0798 69.5593L23.7981 69.5676C23.9528 69.3964 24.1212 69.25 24.3035 69.1285C24.4858 69.0015 24.6791 68.9048 24.8835 68.8385C25.0934 68.7667 25.3088 68.7308 25.5297 68.7308Z" fill="white"/>
<path d="M20.037 72.426L18.4297 68.822H19.4239L20.8821 72.0946L20.037 72.426ZM19.0428 74.4393L21.5532 68.822H22.5474L20.037 74.4393H19.0428Z" fill="white"/>
<path d="M16.1907 72.9977C15.8869 72.9977 15.5969 72.9535 15.3207 72.8652C15.0446 72.7713 14.7933 72.6249 14.5668 72.426C14.3403 72.2217 14.1498 71.9538 13.9951 71.6224L14.7739 71.1584C14.9562 71.4788 15.1633 71.7135 15.3953 71.8626C15.6273 72.0118 15.9062 72.0863 16.2321 72.0863C16.5359 72.0863 16.7651 72.0201 16.9198 71.8875C17.0799 71.7549 17.16 71.5727 17.16 71.3407C17.16 71.2026 17.1241 71.0838 17.0523 70.9844C16.9861 70.8795 16.8645 70.7828 16.6878 70.6944C16.5166 70.6005 16.2708 70.5149 15.9504 70.4376C15.5085 70.3271 15.1633 70.1918 14.9148 70.0316C14.6662 69.8659 14.4922 69.6754 14.3928 69.46C14.2934 69.239 14.2437 68.9988 14.2437 68.7392C14.2437 68.4188 14.3182 68.1399 14.4674 67.9024C14.6165 67.6648 14.8319 67.477 15.1136 67.339C15.3953 67.2009 15.7295 67.1318 16.1161 67.1318C16.5746 67.1318 16.9529 67.2202 17.2512 67.397C17.555 67.5737 17.8063 67.8085 18.0051 68.1012L17.218 68.6232C17.0579 68.4188 16.8811 68.2752 16.6878 68.1923C16.5 68.104 16.3039 68.0598 16.0995 68.0598C15.8068 68.0598 15.5831 68.1178 15.4284 68.2338C15.2738 68.3442 15.1965 68.5072 15.1965 68.7226C15.1965 68.9049 15.271 69.0623 15.4202 69.1948C15.5693 69.3274 15.8593 69.4462 16.2901 69.5511C16.7541 69.6671 17.1214 69.8052 17.392 69.9654C17.6627 70.12 17.8532 70.3106 17.9637 70.537C18.0797 70.758 18.1377 71.0231 18.1377 71.3324C18.1377 71.6472 18.0576 71.9289 17.8974 72.1775C17.7372 72.426 17.5108 72.6249 17.218 72.774C16.9308 72.9231 16.5884 72.9977 16.1907 72.9977Z" fill="white"/>
<path d="M7.06088 70.7441H9.96896V71.6389H7.06088V70.7441ZM5.94238 72.8651L7.94739 67.223H9.14873L11.1289 72.8651H10.1512L8.43621 67.8858H8.66819L6.91174 72.8651H5.94238Z" fill="white"/>
<path d="M186.931 8.10168V4.10251H187.694V8.10168H186.931ZM185.557 4.34588V3.62234H189.122V4.34588H185.557ZM189.52 8.10168L190.329 3.62234H191.013L192.184 6.81905L193.361 3.62234H194.039L194.854 8.10168H194.065L193.723 6.01659C193.675 5.72279 193.633 5.43337 193.598 5.14834C193.563 4.85893 193.539 4.56732 193.526 4.27352H193.73C193.651 4.61117 193.572 4.91594 193.493 5.18781C193.414 5.4553 193.324 5.72937 193.223 6.01001L192.48 8.03591H191.888L191.145 6.01001C191.044 5.72498 190.954 5.44872 190.875 5.18123C190.796 4.91374 190.717 4.61117 190.638 4.27352H190.842C190.829 4.56732 190.805 4.85893 190.77 5.14834C190.739 5.43337 190.697 5.72279 190.645 6.01659L190.303 8.10168H189.52Z" fill="white"/>
<defs>
<linearGradient id="paint0_linear_4079_5794" x1="40.5096" y1="49.9263" x2="17.5291" y2="10.1238" gradientUnits="userSpaceOnUse">
<stop stop-color="#80C345"/>
<stop offset="1" stop-color="#18733F"/>
</linearGradient>
<clipPath id="clip0_4079_5794">
<rect width="45.9528" height="45.9528" fill="white" transform="translate(6.04297 7.04871)"/>
</clipPath>
</defs>
</svg>
